<?xml version="1.0" encoding="utf-8"?>
<!-- Generator: Adobe Illustrator 16.0.0, SVG Export Plug-In . SVG Version: 6.00 Build 0)  -->
<!DOCTYPE svg PUBLIC "-//W3C//DTD SVG 1.1//EN" "http://www.w3.org/Graphics/SVG/1.1/DTD/svg11.dtd">
<svg version="1.1" id="Layer_1" xmlns="http://www.w3.org/2000/svg" xmlns:xlink="http://www.w3.org/1999/xlink" x="0px" y="0px"
	 width="180px" height="162.439px" viewBox="0 0 180 162.439" enable-background="new 0 0 180 162.439" xml:space="preserve">
<rect fill="#A3D478" width="180" height="162.439"/>
<g id="Page-1">
	<g id="Main-2">
		<g id="整體" transform="translate(31.000000, 50.000000)">
			<g id="後體" transform="translate(13.531915, 12.398844)">
				<rect id="Rectangle-4" x="-20.094" y="-28.156" fill="#EFEFEF" width="138.002" height="79.793"/>
				<path id="Triangle-1" fill="#EFEFEF" d="M26.937,43.597h43.936L48.905,72.052L26.937,43.597z"/>
			</g>
			<g id="前體">
				<rect id="Rectangle-4_1_" x="-13.988" y="-22.561" fill="#FFFFFF" width="138.002" height="79.793"/>
				<path id="Triangle-1_1_" fill="#FFFFFF" d="M33.043,49.192h43.935L55.01,77.646L33.043,49.192z"/>
			</g>
			<g enable-background="new    ">
				<path fill="#A3D478" d="M11.223,22.796l-8.1-17.117h5.729l2.7,6.569c0.769,2.009,1.499,3.907,2.338,5.987h0.148
					c0.84-2.08,1.641-3.979,2.41-5.987l2.7-6.569h5.62l-8.144,17.117v9.889h-5.4V22.796z"/>
				<path fill="#A3D478" d="M25.311,29.255l3.1-3.721c1.932,1.789,4.489,2.991,6.86,2.991c2.81,0,4.308-1.202,4.308-3.101
					c0-2.009-1.641-2.628-4.05-3.649l-3.611-1.531c-2.738-1.131-5.471-3.32-5.471-7.261c0-4.417,3.869-7.809,9.34-7.809
					c3.139,0,6.278,1.24,8.468,3.468l-2.738,3.392c-1.718-1.421-3.501-2.228-5.729-2.228c-2.371,0-3.907,1.059-3.907,2.848
					c0,1.932,1.932,2.628,4.231,3.54l3.54,1.499c3.282,1.35,5.438,3.43,5.438,7.337c0,4.417-3.688,8.177-9.927,8.177
					C31.55,33.195,27.939,31.773,25.311,29.255z"/>
				<path fill="#A3D478" d="M49.868,5.679h5.4v27.005h-5.4V5.679z"/>
				<path fill="#A3D478" d="M67.281,10.168h-7.59V5.679h20.656v4.489h-7.661v22.516h-5.4V10.168H67.281z"/>
				<path fill="#A3D478" d="M84.721,5.679h7.409c8.249,0,13.357,4.27,13.357,13.39c0,9.088-5.109,13.61-13.066,13.61h-7.7V5.679z
					 M91.8,28.344c5.038,0,8.177-2.7,8.177-9.269c0-6.607-3.139-9.088-8.177-9.088h-1.679v18.356H91.8z"/>
			</g>
		</g>
	</g>
</g>
</svg>
